<?xml version="1.0" encoding="UTF-8"?><svg id="Layer_2" xmlns="http://www.w3.org/2000/svg" viewBox="0 0 695.72 179.01"><defs><style>.cls-1{fill:#ed1d2a;}.cls-2{fill:#0dbbbc;}</style></defs><g id="Layer_1-2"><g><g><path class="cls-1" d="M249.47,30.07v18.6h45.26v27.59h-45.26v34.72h-36.58V2.48h88.19V30.07h-51.61Z"/><path class="cls-1" d="M352.86,106.17c-9.3-4.86-16.58-11.6-21.85-20.23-5.27-8.63-7.91-18.37-7.91-29.22s2.63-20.59,7.91-29.22c5.27-8.63,12.55-15.37,21.85-20.23,9.3-4.86,19.79-7.29,31.46-7.29s22.17,2.43,31.46,7.29c9.3,4.86,16.58,11.6,21.86,20.23,5.27,8.63,7.91,18.37,7.91,29.22s-2.64,20.59-7.91,29.22c-5.27,8.63-12.55,15.37-21.86,20.23-9.3,4.86-19.79,7.29-31.46,7.29s-22.17-2.43-31.46-7.29Zm43.79-25.65c3.67-2.22,6.59-5.37,8.76-9.46,2.17-4.08,3.25-8.86,3.25-14.34s-1.08-10.25-3.25-14.34c-2.17-4.08-5.09-7.23-8.76-9.46-3.67-2.22-7.78-3.33-12.32-3.33s-8.66,1.11-12.32,3.33c-3.67,2.22-6.59,5.37-8.76,9.46-2.17,4.08-3.25,8.86-3.25,14.34s1.08,10.26,3.25,14.34c2.17,4.08,5.09,7.23,8.76,9.46,3.67,2.22,7.77,3.33,12.32,3.33s8.65-1.11,12.32-3.33Z"/><path class="cls-1" d="M520.88,83.7h-9.92v27.28h-36.58V2.48h52.24c10.02,0,18.75,1.65,26.19,4.96,7.44,3.31,13.18,8.06,17.21,14.26,4.03,6.2,6.04,13.43,6.04,21.7,0,7.75-1.76,14.52-5.27,20.31-3.51,5.79-8.58,10.38-15.19,13.79l22.79,33.48h-39.06l-18.45-27.28Zm14.57-49.68c-2.48-2.22-6.2-3.33-11.16-3.33h-13.33v25.42h13.33c4.96,0,8.68-1.11,11.16-3.33,2.48-2.22,3.72-5.35,3.72-9.38s-1.24-7.15-3.72-9.38Z"/><path class="cls-1" d="M627.36,30.85h-31.77V2.48h100.13V30.85h-31.78V110.98h-36.58V30.85Z"/></g><g><path d="M219.78,174.43c-2.59-2.61-3.89-6.34-3.89-11.21v-18.96h6.24v18.72c0,6.59,2.85,9.89,8.54,9.89s8.5-3.3,8.5-9.89v-18.72h6.14v18.96c0,4.86-1.29,8.6-3.86,11.21-2.58,2.61-6.18,3.91-10.82,3.91s-8.26-1.3-10.85-3.91Z"/><path d="M260.67,177.38c-1.98-.54-3.57-1.23-4.75-2.06l2.3-4.56c1.15,.77,2.54,1.38,4.15,1.85,1.62,.46,3.21,.7,4.78,.7,3.58,0,5.38-.94,5.38-2.83,0-.9-.46-1.52-1.37-1.87-.91-.35-2.38-.69-4.39-1.01-2.11-.32-3.83-.69-5.16-1.1-1.33-.42-2.48-1.14-3.46-2.18-.98-1.04-1.46-2.49-1.46-4.34,0-2.43,1.02-4.38,3.05-5.83,2.03-1.46,4.78-2.18,8.23-2.18,1.76,0,3.52,.2,5.28,.6,1.76,.4,3.2,.94,4.32,1.61l-2.3,4.56c-2.18-1.28-4.62-1.92-7.34-1.92-1.76,0-3.1,.26-4.01,.79-.91,.53-1.37,1.22-1.37,2.09,0,.96,.49,1.64,1.46,2.04,.98,.4,2.49,.78,4.54,1.13,2.05,.32,3.73,.69,5.04,1.1,1.31,.42,2.44,1.12,3.38,2.11,.94,.99,1.42,2.4,1.42,4.22,0,2.4-1.04,4.32-3.12,5.76-2.08,1.44-4.91,2.16-8.5,2.16-2.08,0-4.11-.27-6.1-.82Z"/><path d="M312.95,166.97h-20.11c.35,1.89,1.27,3.38,2.76,4.49s3.34,1.66,5.54,1.66c2.81,0,5.13-.93,6.96-2.78l3.22,3.7c-1.15,1.38-2.61,2.42-4.37,3.12-1.76,.7-3.74,1.06-5.95,1.06-2.82,0-5.3-.56-7.44-1.68-2.14-1.12-3.8-2.68-4.97-4.68-1.17-2-1.75-4.26-1.75-6.79s.57-4.74,1.71-6.74c1.13-2,2.71-3.56,4.73-4.68,2.02-1.12,4.29-1.68,6.82-1.68s4.73,.55,6.7,1.66c1.97,1.1,3.51,2.66,4.61,4.66,1.1,2,1.66,4.31,1.66,6.94,0,.42-.03,1.01-.1,1.78Zm-17.73-8.52c-1.33,1.14-2.14,2.65-2.42,4.54h14.54c-.26-1.86-1.04-3.36-2.35-4.51-1.31-1.15-2.95-1.73-4.9-1.73s-3.54,.57-4.87,1.7Z"/><path d="M349.28,142.25v35.62h-5.76v-3.31c-.99,1.22-2.22,2.13-3.67,2.74-1.46,.61-3.06,.91-4.82,.91-2.46,0-4.68-.54-6.65-1.63-1.97-1.09-3.51-2.63-4.63-4.63-1.12-2-1.68-4.3-1.68-6.89s.56-4.88,1.68-6.86c1.12-1.98,2.66-3.52,4.63-4.61,1.97-1.09,4.18-1.63,6.65-1.63,1.7,0,3.25,.29,4.66,.86,1.41,.58,2.61,1.44,3.6,2.59v-13.15h6Zm-9.65,29.83c1.15-.66,2.06-1.59,2.74-2.81,.67-1.22,1.01-2.62,1.01-4.22s-.34-3.01-1.01-4.22c-.67-1.22-1.58-2.15-2.74-2.81-1.15-.66-2.45-.98-3.89-.98s-2.74,.33-3.89,.98c-1.15,.66-2.06,1.59-2.74,2.81-.67,1.22-1.01,2.62-1.01,4.22s.34,3.01,1.01,4.22c.67,1.22,1.58,2.15,2.74,2.81,1.15,.66,2.45,.98,3.89,.98s2.74-.33,3.89-.98Z"/><path d="M388.09,176.11c-2.74-1.49-4.88-3.54-6.43-6.17-1.55-2.62-2.33-5.58-2.33-8.88s.78-6.26,2.35-8.88c1.57-2.62,3.72-4.68,6.46-6.17,2.74-1.49,5.8-2.23,9.19-2.23,2.75,0,5.26,.48,7.54,1.44,2.27,.96,4.19,2.35,5.76,4.18l-4.03,3.79c-2.43-2.62-5.42-3.94-8.98-3.94-2.3,0-4.37,.5-6.19,1.51-1.82,1.01-3.25,2.41-4.27,4.2-1.02,1.79-1.54,3.82-1.54,6.1s.51,4.3,1.54,6.1c1.02,1.79,2.45,3.19,4.27,4.2,1.82,1.01,3.89,1.51,6.19,1.51,3.55,0,6.54-1.33,8.98-3.98l4.03,3.84c-1.57,1.82-3.5,3.22-5.78,4.18-2.29,.96-4.81,1.44-7.56,1.44-3.39,0-6.46-.74-9.19-2.23Z"/><path d="M439.64,154.66c2,1.81,3,4.54,3,8.18v15.02h-5.66v-3.12c-.74,1.12-1.78,1.98-3.14,2.57-1.36,.59-3,.89-4.92,.89s-3.6-.33-5.04-.98c-1.44-.66-2.55-1.57-3.34-2.74-.78-1.17-1.18-2.49-1.18-3.96,0-2.3,.86-4.15,2.57-5.54,1.71-1.39,4.41-2.09,8.09-2.09h6.62v-.38c0-1.79-.54-3.17-1.61-4.13-1.07-.96-2.66-1.44-4.78-1.44-1.44,0-2.86,.22-4.25,.67-1.39,.45-2.57,1.07-3.53,1.87l-2.35-4.37c1.34-1.02,2.96-1.81,4.85-2.35,1.89-.54,3.89-.82,6-.82,3.78,0,6.66,.9,8.66,2.71Zm-5.47,18.14c1.17-.69,1.99-1.67,2.47-2.95v-2.98h-6.19c-3.46,0-5.18,1.14-5.18,3.41,0,1.09,.43,1.95,1.3,2.59,.86,.64,2.06,.96,3.6,.96s2.84-.34,4.01-1.03Z"/><path d="M470.53,151.94v5.71c-.51-.1-.98-.14-1.39-.14-2.34,0-4.16,.68-5.47,2.04-1.31,1.36-1.97,3.32-1.97,5.88v12.43h-6v-25.63h5.71v3.74c1.73-2.69,4.77-4.03,9.12-4.03Z"/><path d="M506.79,176.11c-2.74-1.49-4.88-3.54-6.43-6.17-1.55-2.62-2.33-5.58-2.33-8.88s.78-6.26,2.35-8.88c1.57-2.62,3.72-4.68,6.46-6.17,2.74-1.49,5.8-2.23,9.19-2.23,2.75,0,5.26,.48,7.54,1.44,2.27,.96,4.19,2.35,5.76,4.18l-4.03,3.79c-2.43-2.62-5.42-3.94-8.98-3.94-2.3,0-4.37,.5-6.19,1.51-1.82,1.01-3.25,2.41-4.27,4.2-1.02,1.79-1.54,3.82-1.54,6.1s.51,4.3,1.54,6.1c1.02,1.79,2.45,3.19,4.27,4.2,1.82,1.01,3.89,1.51,6.19,1.51,3.55,0,6.54-1.33,8.98-3.98l4.03,3.84c-1.57,1.82-3.5,3.22-5.78,4.18-2.29,.96-4.81,1.44-7.56,1.44-3.39,0-6.46-.74-9.19-2.23Z"/><path d="M563.17,166.97h-20.11c.35,1.89,1.27,3.38,2.76,4.49s3.34,1.66,5.54,1.66c2.82,0,5.14-.93,6.96-2.78l3.22,3.7c-1.15,1.38-2.61,2.42-4.37,3.12-1.76,.7-3.74,1.06-5.95,1.06-2.82,0-5.3-.56-7.44-1.68-2.14-1.12-3.8-2.68-4.97-4.68-1.17-2-1.75-4.26-1.75-6.79s.57-4.74,1.7-6.74c1.13-2,2.71-3.56,4.73-4.68,2.02-1.12,4.29-1.68,6.82-1.68s4.73,.55,6.7,1.66c1.97,1.1,3.5,2.66,4.61,4.66,1.1,2,1.66,4.31,1.66,6.94,0,.42-.03,1.01-.1,1.78Zm-17.74-8.52c-1.33,1.14-2.14,2.65-2.42,4.54h14.54c-.26-1.86-1.04-3.36-2.35-4.51-1.31-1.15-2.94-1.73-4.9-1.73s-3.54,.57-4.87,1.7Z"/><path d="M596.72,154.78c1.95,1.89,2.93,4.69,2.93,8.4v14.69h-6v-13.92c0-2.24-.53-3.93-1.58-5.06-1.06-1.14-2.56-1.7-4.51-1.7-2.21,0-3.95,.66-5.23,1.99-1.28,1.33-1.92,3.24-1.92,5.74v12.96h-6v-25.63h5.71v3.31c.99-1.18,2.24-2.08,3.74-2.69s3.2-.91,5.09-.91c3.23,0,5.82,.94,7.78,2.83Z"/><path d="M628.06,176.47c-.7,.58-1.56,1.01-2.57,1.3-1.01,.29-2.07,.43-3.19,.43-2.82,0-4.99-.74-6.53-2.21-1.54-1.47-2.3-3.62-2.3-6.43v-12.34h-4.22v-4.8h4.22v-5.86h6v5.86h6.86v4.8h-6.86v12.19c0,1.25,.3,2.2,.91,2.86,.61,.66,1.49,.98,2.64,.98,1.34,0,2.46-.35,3.36-1.06l1.68,4.27Z"/><path d="M653.21,151.94v5.71c-.51-.1-.98-.14-1.39-.14-2.34,0-4.16,.68-5.47,2.04-1.31,1.36-1.97,3.32-1.97,5.88v12.43h-6v-25.63h5.71v3.74c1.73-2.69,4.77-4.03,9.12-4.03Z"/><path d="M687.44,166.97h-20.11c.35,1.89,1.27,3.38,2.76,4.49s3.34,1.66,5.54,1.66c2.82,0,5.14-.93,6.96-2.78l3.22,3.7c-1.15,1.38-2.61,2.42-4.37,3.12-1.76,.7-3.74,1.06-5.95,1.06-2.82,0-5.3-.56-7.44-1.68-2.14-1.12-3.8-2.68-4.97-4.68-1.17-2-1.75-4.26-1.75-6.79s.57-4.74,1.7-6.74c1.13-2,2.71-3.56,4.73-4.68,2.02-1.12,4.29-1.68,6.82-1.68s4.73,.55,6.7,1.66c1.97,1.1,3.5,2.66,4.61,4.66,1.1,2,1.66,4.31,1.66,6.94,0,.42-.03,1.01-.1,1.78Zm-17.74-8.52c-1.33,1.14-2.14,2.65-2.42,4.54h14.54c-.26-1.86-1.04-3.36-2.35-4.51-1.31-1.15-2.94-1.73-4.9-1.73s-3.54,.57-4.87,1.7Z"/></g><g><polygon class="cls-1" points="46.37 78.63 35.61 81.45 50.03 134.28 60.8 131.46 46.37 78.63"/><polygon class="cls-1" points="117.57 36.64 132.05 2.04 81.01 15.41 76.89 .34 17.29 15.95 33.16 74.1 85.51 60.39 89.63 75.49 147.66 60.29 117.57 36.64"/></g><g><polygon points="86.15 123.36 75.39 126.18 89.81 179.01 100.57 176.19 86.15 123.36"/><polygon points="157.35 81.37 171.83 46.77 120.78 60.13 116.67 45.07 57.07 60.68 72.94 118.83 125.29 105.12 129.41 120.22 187.44 105.02 157.35 81.37"/></g><g><polygon class="cls-2" points="22.98 98.12 11.96 101 26.72 155.07 37.74 152.19 22.98 98.12"/><polygon class="cls-2" points="65.48 70.7 74.93 48.1 41.61 56.83 38.92 46.99 0 57.18 10.37 95.15 44.54 86.2 47.24 96.06 85.13 86.14 65.48 70.7"/></g></g></g></svg>